<svg id="Layer_1" data-name="Layer 1" xmlns="http://www.w3.org/2000/svg" viewBox="0 0 225.92 81.31"><defs><style>.cls-1{fill:#fff;}</style></defs><title>logoPart2</title><path class="cls-1" d="M309.22,174.1l-17-48.27H303.4l7.18,22.3c2.18,6.74,3.84,12.46,4.95,17.4h.14c1-4.51,2.87-10.41,5.17-17.25l7.53-22.45H339L321.53,174.1Z" transform="translate(-292.19 -125.83)"/><path class="cls-1" d="M355.29,125.83V174.1H344.86V125.83Z" transform="translate(-292.19 -125.83)"/><path class="cls-1" d="M378.38,174.1l-17-48.27h11.21l7.18,22.3c2.17,6.74,3.84,12.46,4.95,17.4h.14c1-4.51,2.87-10.41,5.17-17.25l7.53-22.45h10.64L390.69,174.1Z" transform="translate(-292.19 -125.83)"/><path class="cls-1" d="M424.45,125.83V174.1H414V125.83Z" transform="translate(-292.19 -125.83)"/><path class="cls-1" d="M436,125.83h33.69v8.56h-23.5v11.82h22v8.56h-22V174.1H436Z" transform="translate(-292.19 -125.83)"/><path class="cls-1" d="M490.42,174.1V157a2.7,2.7,0,0,0-.41-1.55l-16.63-29.66h11.8c3.73,7.28,8.57,17,11,22.21,2.1-5.06,7.39-15.22,11-22.21h10.92l-16.85,29.51a2.29,2.29,0,0,0-.4,1.54V174.1Z" transform="translate(-292.19 -125.83)"/><text x="-292.19" y="-125.83"/></svg>