<svg id="Layer_1" data-name="Layer 1" xmlns="http://www.w3.org/2000/svg" viewBox="0 0 245.17 96.14"><defs><style>.cls-1{fill:#050000;}</style></defs><title>logoPart1</title><circle class="cls-1" cx="4" cy="4" r="4"/><circle class="cls-1" cx="4" cy="28" r="4"/><circle class="cls-1" cx="4" cy="50" r="4"/><circle class="cls-1" cx="21" cy="4" r="4"/><circle class="cls-1" cx="21" cy="28" r="4"/><circle class="cls-1" cx="30" cy="16" r="4"/><circle class="cls-1" cx="48" cy="16" r="4"/><circle class="cls-1" cx="30" cy="39" r="4"/><circle class="cls-1" cx="56" cy="51" r="4"/><circle class="cls-1" cx="21" cy="62" r="4"/><circle class="cls-1" cx="39" cy="4" r="4"/><circle class="cls-1" cx="39" cy="28" r="4"/><circle class="cls-1" cx="20.9" cy="50.09" r="4"/><rect class="cls-1" y="58" width="14" height="9" rx="4.5"/><circle class="cls-1" cx="49" cy="39" r="4"/><rect class="cls-1" x="47" y="24" width="13" height="8" rx="4"/><rect class="cls-1" x="28" y="46" width="16" height="8" rx="4"/><rect class="cls-1" x="28" y="58" width="16" height="8" rx="4"/><rect class="cls-1" x="46" y="58" width="14" height="8" rx="4"/><rect class="cls-1" x="47" width="13" height="8" rx="4"/><text x="-210" y="-111"/></svg>