<svg id="Layer_1" data-name="Layer 1" xmlns="http://www.w3.org/2000/svg" viewBox="0 0 406.23 96.14"><defs><style>.cls-1{fill:#050000;}</style></defs><title>logo</title><circle class="cls-1" cx="4" cy="4" r="4"/><circle class="cls-1" cx="4" cy="28" r="4"/><circle class="cls-1" cx="4" cy="50" r="4"/><circle class="cls-1" cx="21" cy="4" r="4"/><circle class="cls-1" cx="21" cy="28" r="4"/><circle class="cls-1" cx="30" cy="16" r="4"/><circle class="cls-1" cx="48" cy="16" r="4"/><circle class="cls-1" cx="30" cy="39" r="4"/><circle class="cls-1" cx="56" cy="51" r="4"/><circle class="cls-1" cx="21" cy="62" r="4"/><circle class="cls-1" cx="39" cy="4" r="4"/><circle class="cls-1" cx="39" cy="28" r="4"/><circle class="cls-1" cx="20.9" cy="50.09" r="4"/><rect class="cls-1" y="58" width="15" height="9" rx="4.5"/><circle class="cls-1" cx="49" cy="39" r="4"/><rect class="cls-1" x="47" y="24" width="13" height="8" rx="4"/><rect class="cls-1" x="28" y="46" width="16" height="8" rx="4"/><rect class="cls-1" x="28" y="58" width="16" height="8" rx="4"/><rect class="cls-1" x="46" y="58" width="14" height="8" rx="4"/><rect class="cls-1" x="47" width="13" height="8" rx="4"/><path d="M309.2,172l-18-51H303l7.59,23.57c2.3,7.13,4.06,13.18,5.24,18.4H316c1.05-4.76,3-11,5.47-18.23l8-23.74h11.25l-18.48,51Z" transform="translate(-210 -111)"/><path d="M375.74,121v51h-11V121Z" transform="translate(-210 -111)"/><path d="M417.75,172l-18-51H411.6l7.59,23.57c2.3,7.13,4.06,13.18,5.23,18.4h.15c1-4.76,3-11,5.46-18.23L438,121h11.26l-18.49,51Z" transform="translate(-210 -111)"/><path d="M484.29,121v51h-11V121Z" transform="translate(-210 -111)"/><path d="M514.33,121h35.61v9H525.1v12.5h23.27v9H525.1V172H514.33Z" transform="translate(-210 -111)"/><path d="M587,172V154a2.89,2.89,0,0,0-.43-1.64L568.94,121h12.48c3.94,7.7,9.06,17.94,11.61,23.48,2.22-5.34,7.8-16.08,11.66-23.48h11.54l-17.82,31.2a2.44,2.44,0,0,0-.41,1.63V172Z" transform="translate(-210 -111)"/><text x="-210" y="-111"/></svg>